<svg width="14" height="11" viewBox="0 0 14 11" xmlns="http://www.w3.org/2000/svg">
<path fill-rule="evenodd" clip-rule="evenodd" d="M13.0338 0H7.92827L7.60337 0.139241L7 0.733333L6.39662 0.139241L6.07173 0H0.966241L0.502106 0.464135V9.74684L0.966241 10.211H5.87679L6.6751 11H7.32489L8.1232 10.211H13.0338L13.4979 9.74684V0.464135L13.0338 0ZM6.53586 9.57975L6.36877 9.42194L6.07173 9.2827H1.43038V0.92827H5.87679L6.56371 1.61519L6.53586 9.57975ZM12.5696 9.2827H7.92827L7.60337 9.42194L7.47341 9.54262V1.57806L8.1232 0.92827H12.5696V9.2827ZM5.14346 2.78481H2.35865V3.71308H5.14346V2.78481ZM5.14346 6.49789H2.35865V7.42616H5.14346V6.49789ZM2.35865 4.64135H5.14346V5.56962H2.35865V4.64135ZM11.6413 2.78481H8.85654V3.71308H11.6413V2.78481ZM8.85654 4.64135H11.6413V5.56962H8.85654V4.64135ZM8.85654 6.49789H11.6413V7.42616H8.85654V6.49789Z" />
</svg>
