<svg width="23" height="27" viewBox="0 0 23 27" fill="none" xmlns="http://www.w3.org/2000/svg">
<path d="M11.5 26.2872C12.3714 26.2872 13.2072 25.941 13.8234 25.3248C14.4395 24.7086 14.7857 23.8729 14.7857 23.0015H8.21429C8.21429 23.8729 8.56047 24.7086 9.17666 25.3248C9.79285 25.941 10.6286 26.2872 11.5 26.2872Z" fill="#BBBBBB"/>
<path fill-rule="evenodd" clip-rule="evenodd" d="M11.5 3.15244L10.1906 3.41694C8.70543 3.71955 7.3704 4.52604 6.4115 5.69989C5.4526 6.87374 4.92873 8.34286 4.92857 9.85858C4.92857 10.8903 4.70843 13.4679 4.1745 16.0062C3.91164 17.2662 3.55679 18.5789 3.08529 19.7157H19.9147C19.4432 18.5789 19.09 17.2679 18.8255 16.0062C18.2916 13.4679 18.0714 10.8903 18.0714 9.85858C18.0709 8.34314 17.5469 6.87441 16.588 5.7009C15.6291 4.52738 14.2943 3.72114 12.8094 3.41858L11.5 3.15079V3.15244ZM21.7186 19.7157C22.0849 20.4501 22.5088 21.0317 23 21.3586H0C0.491214 21.0317 0.915071 20.4501 1.28143 19.7157C2.76 16.7586 3.28571 11.3043 3.28571 9.85858C3.28571 5.88287 6.11143 2.56429 9.86536 1.80694C9.84243 1.5785 9.86763 1.3478 9.93934 1.12971C10.0111 0.911614 10.1277 0.710971 10.2817 0.540718C10.4357 0.370467 10.6237 0.234386 10.8335 0.141252C11.0434 0.0481184 11.2704 0 11.5 0C11.7296 0 11.9566 0.0481184 12.1665 0.141252C12.3763 0.234386 12.5643 0.370467 12.7183 0.540718C12.8723 0.710971 12.9889 0.911614 13.0607 1.12971C13.1324 1.3478 13.1576 1.5785 13.1346 1.80694C14.9915 2.18463 16.6608 3.19246 17.8599 4.65976C19.0589 6.12706 19.714 7.96367 19.7143 9.85858C19.7143 11.3043 20.24 16.7586 21.7186 19.7157Z" fill="#BBBBBB"/>
</svg>
