<svg width="23" height="23" viewBox="0 0 23 23" fill="none" xmlns="http://www.w3.org/2000/svg">
<path d="M20.0153 11.9832V11.3645V10.7377L21.5783 9.37007C21.8664 9.11612 22.0555 8.7685 22.1121 8.38864C22.1687 8.00879 22.0892 7.62114 21.8876 7.29423L19.9665 4.03801C19.8237 3.79075 19.6184 3.58538 19.3712 3.4425C19.1241 3.29962 18.8436 3.22425 18.5581 3.22396C18.3812 3.2226 18.2052 3.2501 18.0371 3.30536L16.059 3.97289C15.7175 3.74593 15.3612 3.54197 14.9926 3.36235L14.5774 1.31093C14.503 0.93614 14.2991 0.599476 14.0014 0.359869C13.7038 0.120262 13.3313 -0.00702219 12.9493 0.000299109H9.13953C8.75749 -0.00702219 8.38505 0.120262 8.0874 0.359869C7.78975 0.599476 7.58586 0.93614 7.51142 1.31093L7.09625 3.36235C6.72499 3.54193 6.36602 3.74589 6.0217 3.97289L4.08425 3.2728C3.91435 3.22853 3.73842 3.21204 3.56325 3.22396C3.27774 3.22425 2.99733 3.29962 2.75014 3.4425C2.50296 3.58538 2.29769 3.79075 2.15494 4.03801L0.233769 7.29423C0.0437584 7.62066 -0.0268489 8.00299 0.0340404 8.37575C0.0949297 8.74851 0.283527 9.08851 0.567532 9.33751L2.10609 10.7458V11.9913L0.567532 13.3589C0.275505 13.6097 0.081749 13.9557 0.0206487 14.3358C-0.0404517 14.7158 0.0350552 15.1051 0.233769 15.4348L2.15494 18.691C2.29769 18.9383 2.50296 19.1436 2.75014 19.2865C2.99733 19.4294 3.27774 19.5048 3.56325 19.505C3.74019 19.5064 3.91616 19.4789 4.08425 19.4236L6.0624 18.7561C6.40393 18.9831 6.76019 19.187 7.12881 19.3667L7.54398 21.4181C7.61842 21.7929 7.82231 22.1295 8.11996 22.3691C8.41761 22.6087 8.79005 22.736 9.17209 22.7287H13.0144C13.3965 22.736 13.7689 22.6087 14.0666 22.3691C14.3642 22.1295 14.5681 21.7929 14.6425 21.4181L15.0577 19.3667C15.429 19.1871 15.7879 18.9831 16.1323 18.7561L18.1023 19.4236C18.2704 19.4789 18.4463 19.5064 18.6233 19.505C18.9088 19.5048 19.1892 19.4294 19.4364 19.2865C19.6836 19.1436 19.8888 18.9383 20.0316 18.691L21.8876 15.4348C22.0776 15.1083 22.1482 14.726 22.0873 14.3533C22.0265 13.9805 21.8379 13.6405 21.5539 13.3915L20.0153 11.9832ZM18.5581 17.8769L15.7659 16.9326C15.1123 17.4863 14.3653 17.9191 13.5598 18.2107L12.9819 21.1332H9.13953L8.56155 18.2433C7.76249 17.9433 7.0195 17.5113 6.3636 16.9652L3.56325 17.8769L1.64208 14.6207L3.85631 12.667C3.70579 11.8243 3.70579 10.9617 3.85631 10.119L1.64208 8.10828L3.56325 4.85207L6.35546 5.79637C7.00909 5.24272 7.75612 4.80994 8.56155 4.5183L9.13953 1.59585H12.9819L13.5598 4.48574C14.3589 4.78566 15.1019 5.21769 15.7578 5.76381L18.5581 4.85207L20.4793 8.10828L18.2651 10.062C18.4156 10.9047 18.4156 11.7673 18.2651 12.61L20.4793 14.6207L18.5581 17.8769Z" />
<path d="M11.0609 16.2486C10.0948 16.2486 9.15051 15.9621 8.34729 15.4254C7.54406 14.8887 6.91803 14.1259 6.54834 13.2334C6.17866 12.3409 6.08193 11.3588 6.2704 10.4114C6.45886 9.4639 6.92405 8.59359 7.60713 7.91051C8.29022 7.22742 9.16052 6.76224 10.108 6.57377C11.0555 6.38531 12.0375 6.48204 12.93 6.85172C13.8225 7.2214 14.5853 7.84744 15.122 8.65066C15.6587 9.45389 15.9452 10.3982 15.9452 11.3642C15.9517 12.0075 15.8299 12.6456 15.5867 13.2411C15.3436 13.8366 14.984 14.3777 14.5292 14.8325C14.0743 15.2874 13.5333 15.6469 12.9377 15.8901C12.3422 16.1332 11.7041 16.2551 11.0609 16.2486ZM11.0609 8.10803C10.6305 8.09801 10.2026 8.17538 9.80301 8.33547C9.40342 8.49556 9.04045 8.73504 8.73606 9.03943C8.43167 9.34382 8.19219 9.70679 8.03209 10.1064C7.872 10.506 7.79463 10.9339 7.80466 11.3642C7.79463 11.7946 7.872 12.2225 8.03209 12.6221C8.19219 13.0217 8.43167 13.3847 8.73606 13.6891C9.04045 13.9935 9.40342 14.2329 9.80301 14.393C10.2026 14.5531 10.6305 14.6305 11.0609 14.6205C11.4912 14.6305 11.9191 14.5531 12.3187 14.393C12.7183 14.2329 13.0813 13.9935 13.3857 13.6891C13.6901 13.3847 13.9296 13.0217 14.0897 12.6221C14.2497 12.2225 14.3271 11.7946 14.3171 11.3642C14.3271 10.9339 14.2497 10.506 14.0897 10.1064C13.9296 9.70679 13.6901 9.34382 13.3857 9.03943C13.0813 8.73504 12.7183 8.49556 12.3187 8.33547C11.9191 8.17538 11.4912 8.09801 11.0609 8.10803Z" />
</svg>
