<svg width="192" height="60" viewBox="0 0 192 60" fill="none" xmlns="http://www.w3.org/2000/svg">
<path d="M16.4452 42.4772H32.8833L16.4452 25.8434V42.4772Z" fill="#FFCE00"/>
<path d="M41.1058 34.1567V50.7977L57.551 34.1567H41.1058Z" fill="#FFCE00"/>
<path d="M16.4452 17.5228H24.6677V9.20227" fill="#FFCE00"/>
<path d="M8.2226 42.4771V50.7976H16.4452V42.4771H8.2226ZM16.4452 50.7976H24.6678L32.8833 42.4771H24.6678L16.4452 50.7976ZM41.1059 25.8433H32.8833V34.1566H41.1059V25.8433ZM41.1059 50.7976V42.4771L32.8833 34.1566V42.4771L41.1059 50.7976ZM32.8833 17.5228V9.20227H24.6678V17.5228H32.8833ZM24.6678 9.20227H16.4452L8.2226 17.5228H16.4452L24.6678 9.20227Z" fill="#FFB6D5"/>
<path d="M16.4452 59.1182L24.6678 50.7977H8.22259L16.4452 59.1182ZM16.4452 25.8433L0 42.4772H16.4452V25.8433ZM32.8833 25.8433L24.6678 34.1567L32.8833 42.4772V25.8433ZM57.5511 34.1567L41.1059 17.5228V34.1567H57.5511ZM24.6678 0.881836L16.4452 9.20234H32.8833L24.6678 0.881836ZM24.6678 34.1567L41.113 17.5157H24.6678V34.1567Z" fill="#2935FF"/>
<path d="M16.4452 50.7976L24.6678 42.4771H16.4452V50.7976ZM8.22259 50.7976V42.4771H0L8.22259 50.7976ZM41.1059 42.4771V34.1566H32.8833L41.1059 42.4771ZM32.8833 25.8433H41.1059V17.5228L32.8833 25.8433ZM32.8833 17.5228H41.1059L32.8833 9.20227V17.5228ZM24.6678 34.1566V17.5228H8.22259L24.6678 34.1566Z" fill="#FF1C3F"/>
<path d="M80.2429 16.4622H75.0303V23.3995H70.7525V27.8142H75.0303V45.6162H80.2429V27.8142H84.471V23.3995H80.2429V16.4622ZM97.4317 22.7259C90.7531 22.7259 86.3833 27.549 86.3833 34.5365C86.3833 41.567 90.838 46.211 97.3396 46.211C101.886 46.211 105.711 43.9105 107.361 39.9904L102.956 38.2345C101.979 40.3057 100.109 41.6172 97.3396 41.6172C94.4005 41.6172 91.7304 40.1265 91.3692 36.4787H108.204V34.4935C108.211 27.3627 103.94 22.7259 97.4317 22.7259ZM91.4684 32.7305C91.9146 29.1257 94.0959 27.1907 97.3042 27.1907C100.47 27.1907 102.651 28.9895 102.871 32.7305H91.4684ZM124.401 23.3995L119.677 31.0607C118.027 28.4019 116.334 25.7 114.691 23.3995H108.452L116.334 34.7085L108.671 45.6162H114.642L119.274 38.2274C120.697 40.5279 122.567 43.502 124.083 45.6162H130.273L122.659 34.6655L130.45 23.3995H124.401ZM151.923 12.3127C150.053 12.3127 148.63 13.8034 148.63 15.6954C148.63 17.5874 150.053 19.078 151.923 19.078C153.793 19.078 155.266 17.5874 155.266 15.6954C155.266 13.8034 153.793 12.3127 151.923 12.3127ZM141.328 16.4622H136.165V23.3995H131.887V27.8142H136.165V45.6162H141.328V27.8142H149.253V45.6162H154.508V23.3995H141.328V16.4622ZM160.295 45.6162H165.55V12.1335H160.295V45.6162ZM191.563 34.4864C191.563 27.3627 187.285 22.7259 180.784 22.7259C174.105 22.7259 169.742 27.549 169.742 34.5365C169.742 41.567 174.197 46.211 180.699 46.211C185.239 46.211 189.07 43.9105 190.72 39.9904L186.315 38.2345C185.338 40.3057 183.468 41.6172 180.706 41.6172C177.767 41.6172 175.097 40.1265 174.735 36.4787H191.57V34.4864H191.563ZM174.813 32.7305C175.26 29.1257 177.441 27.1907 180.649 27.1907C183.815 27.1907 185.996 28.9895 186.216 32.7305H174.813Z" fill="#2935FF"/>
</svg>
