<svg width="94" height="107" viewBox="0 0 94 107" fill="none" xmlns="http://www.w3.org/2000/svg">
<path d="M31.8644 50.0603H51.939L31.8644 30.0574V50.0603ZM62.0294 40.1118V60.1147L82.1039 40.1118H62.0294ZM41.9548 9.94855L31.8644 20.003H41.9548V9.94855Z" fill="#FFCE00"/>
<path d="M21.774 50.0603V60.1147H31.8644V50.0603H21.774ZM31.8644 60.1147H41.9548L52.0452 50.0603H41.9548L31.8644 60.1147ZM62.0294 30.0574H51.939V40.1118H62.0294V30.0574ZM62.0294 60.1147V50.0603L51.939 40.0059V50.0603L62.0294 60.1147ZM51.939 20.003V9.94855H41.8486V20.003H51.939ZM41.9548 9.94855H31.8644L21.774 20.003H31.8644L41.9548 9.94855Z" fill="#FFB6D5"/>
<path d="M31.8645 70.1691L41.9549 60.1147H21.7741L31.8645 70.1691ZM31.8645 30.0574L11.7899 50.0603H31.8645V30.0574ZM82.104 40.1118L62.0295 20.003V40.1118H82.104ZM41.9549 0L31.8645 10.0544H51.9391L41.9549 0ZM41.9549 40.1118L52.0453 50.1662V30.1632L62.1357 20.1088H41.9549V40.1118Z" fill="#2935FF"/>
<path d="M31.8644 60.1147L41.9548 50.0603H31.8644V60.1147ZM21.774 60.1147V50.0603H11.6836L21.774 60.1147ZM62.0294 50.0603V40.1118H51.939L62.0294 50.0603ZM51.939 30.0574H62.0294V20.003L51.939 30.0574ZM51.939 20.003H62.0294L51.939 9.94855V20.003ZM41.9548 40.1118V20.003H21.774L41.9548 40.1118Z" fill="#FF1C3F"/>
<path d="M7.32881 84.0337H3.29265V89.3255H0V92.7122H3.29265V106.365H7.32881V92.7122H10.6215V89.3255H7.32881V84.0337ZM20.7119 88.9021C15.5073 88.9021 12.1085 92.6064 12.1085 98.004C12.1085 103.402 15.6136 107 20.6056 107C24.1107 107 27.0847 105.201 28.3593 102.237L24.9604 100.862C24.2169 102.449 22.7299 103.402 20.6056 103.402C18.2689 103.402 16.2508 102.237 15.9322 99.4857H28.9966V98.004C29.1028 92.3947 25.704 88.9021 20.7119 88.9021ZM16.0384 96.5223C16.3571 93.7706 18.0565 92.2889 20.6056 92.2889C23.0486 92.2889 24.748 93.6647 24.9604 96.5223H16.0384ZM41.6362 89.4313L37.9186 95.2523C36.6441 93.2414 35.3695 91.1247 33.9887 89.4313H29.1028L35.2633 98.1098L29.3153 106.471H33.9887L37.6 100.756C38.6621 102.555 40.1492 104.777 41.3175 106.471H46.0972L40.1492 98.1098L46.2034 89.4313H41.6362ZM63.0915 80.8586C61.6045 80.8586 60.5424 82.0228 60.5424 83.3986C60.5424 84.7745 61.6045 85.9387 63.0915 85.9387C64.5785 85.9387 65.6407 84.7745 65.6407 83.3986C65.6407 82.0228 64.5785 80.8586 63.0915 80.8586ZM54.8068 84.0337H50.7706V89.3255H47.478V92.7122H50.7706V106.365H54.8068V92.7122H60.9672V106.365H65.1096V89.3255H54.8068V84.0337ZM69.5706 106.471H73.713V80.7527H69.5706V106.471ZM94 97.8982C94 92.3947 90.7074 88.9021 85.609 88.9021C80.4045 88.9021 77.0057 92.6064 77.0057 98.004C77.0057 103.402 80.5107 107 85.5028 107C89.0079 107 91.9819 105.201 93.2565 102.237L89.8576 100.862C89.1141 102.449 87.6271 103.402 85.5028 103.402C83.1661 103.402 81.148 102.237 80.8294 99.4857H93.8938V97.8982H94ZM80.9356 96.5223C81.2542 93.7706 82.9537 92.2889 85.5028 92.2889C87.9458 92.2889 89.6452 93.6647 89.8576 96.5223H80.9356Z" fill="#2935FF"/>
</svg>
